# xmcd
#
# Track frame offsets: 
#        150
#        23457
#        43710
#        57390
#        86026
#        100941
#        113811
#        132035
#        158437
#        170867
#        183143
#        194599
#        213736
#
# Disc length: 3101 seconds
#
# Revision: 1
# Processed by: cddbd v1.5.2PL0 Copyright (c) Steve Scherf et al.
# Submitted via: ExactAudioCopy v1.0b3
#
DISCID=ae0c1b0d
DTITLE=Maurice John Vaughn - Dangerous Road
DYEAR=2001
DGENRE=Blues
TTITLE0=Talking to Each Other With the Music
TTITLE1=Dangerous Road
TTITLE2=Two Can Play That Game
TTITLE3=Love Abuse
TTITLE4=Mama: She Believed in Me
TTITLE5=In the Midnight Hour
TTITLE6=Stop and Take a Drink
TTITLE7=I Don't Care
TTITLE8=Lady in the Box
TTITLE9=The Pigeon
TTITLE10=Shoo Fly Shoo
TTITLE11=The Telephone's Running My Life
TTITLE12=I Can't Stand Being Alone
EXTD=YEAR: 2001
EXTT0=
EXTT1=
EXTT2=
EXTT3=
EXTT4=
EXTT5=
EXTT6=
EXTT7=
EXTT8=
EXTT9=
EXTT10=
EXTT11=
EXTT12=
PLAYORDER=
